<svg xmlns="http://www.w3.org/2000/svg" width="130" height="129" viewBox="0 0 130 129">
  <defs>
    <rect id="rect-1" width="130" height="129" x="0" y="0"/>
  </defs>
  <g>
    <ellipse cx="1.5" cy="1.5" fill="rgb(73,104,159)" fill-opacity=".48" rx="1.5" ry="1.5"/>
    <ellipse cx="14.5" cy="1.5" fill="rgb(73,104,159)" fill-opacity=".48" rx="1.5" ry="1.5"/>
    <ellipse cx="29.5" cy="1.5" fill="rgb(73,104,159)" fill-opacity=".48" rx="1.5" ry="1.5"/>
    <ellipse cx="43.5" cy="1.5" fill="rgb(73,104,159)" fill-opacity=".48" rx="1.5" ry="1.5"/>
    <ellipse cx="57.5" cy="1.5" fill="rgb(73,104,159)" fill-opacity=".48" rx="1.5" ry="1.5"/>
    <ellipse cx="71.5" cy="1.5" fill="rgb(73,104,159)" fill-opacity=".48" rx="1.5" ry="1.5"/>
    <ellipse cx="85.5" cy="1.5" fill="rgb(73,104,159)" fill-opacity=".48" rx="1.5" ry="1.5"/>
    <ellipse cx="99.5" cy="1.5" fill="rgb(73,104,159)" fill-opacity=".48" rx="1.5" ry="1.5"/>
    <ellipse cx="113.5" cy="1.5" fill="rgb(73,104,159)" fill-opacity=".48" rx="1.5" ry="1.5"/>
    <ellipse cx="127.5" cy="1.5" fill="rgb(73,104,159)" fill-opacity=".48" rx="1.5" ry="1.5"/>
    <ellipse cx="1.5" cy="14.5" fill="rgb(73,104,159)" fill-opacity=".48" rx="1.5" ry="1.5"/>
    <ellipse cx="14.5" cy="14.5" fill="rgb(73,104,159)" fill-opacity=".48" rx="1.5" ry="1.5"/>
    <ellipse cx="29.5" cy="14.5" fill="rgb(73,104,159)" fill-opacity=".48" rx="1.5" ry="1.5"/>
    <ellipse cx="43.5" cy="14.5" fill="rgb(73,104,159)" fill-opacity=".48" rx="1.5" ry="1.5"/>
    <ellipse cx="57.5" cy="14.5" fill="rgb(73,104,159)" fill-opacity=".48" rx="1.5" ry="1.5"/>
    <ellipse cx="71.5" cy="14.5" fill="rgb(73,104,159)" fill-opacity=".48" rx="1.5" ry="1.5"/>
    <ellipse cx="85.5" cy="14.5" fill="rgb(73,104,159)" fill-opacity=".48" rx="1.5" ry="1.5"/>
    <ellipse cx="99.5" cy="14.5" fill="rgb(73,104,159)" fill-opacity=".48" rx="1.5" ry="1.5"/>
    <ellipse cx="113.5" cy="14.5" fill="rgb(73,104,159)" fill-opacity=".48" rx="1.5" ry="1.5"/>
    <ellipse cx="127.5" cy="14.5" fill="rgb(73,104,159)" fill-opacity=".48" rx="1.5" ry="1.5"/>
    <ellipse cx="1.5" cy="28.5" fill="rgb(73,104,159)" fill-opacity=".48" rx="1.5" ry="1.5"/>
    <ellipse cx="14.5" cy="28.5" fill="rgb(73,104,159)" fill-opacity=".48" rx="1.5" ry="1.5"/>
    <ellipse cx="29.5" cy="28.5" fill="rgb(73,104,159)" fill-opacity=".48" rx="1.5" ry="1.5"/>
    <ellipse cx="43.5" cy="28.5" fill="rgb(73,104,159)" fill-opacity=".48" rx="1.5" ry="1.5"/>
    <ellipse cx="57.5" cy="28.5" fill="rgb(73,104,159)" fill-opacity=".48" rx="1.5" ry="1.5"/>
    <ellipse cx="71.5" cy="28.5" fill="rgb(73,104,159)" fill-opacity=".48" rx="1.5" ry="1.5"/>
    <ellipse cx="85.5" cy="28.5" fill="rgb(73,104,159)" fill-opacity=".48" rx="1.5" ry="1.5"/>
    <ellipse cx="99.5" cy="28.5" fill="rgb(73,104,159)" fill-opacity=".48" rx="1.5" ry="1.5"/>
    <ellipse cx="113.5" cy="28.5" fill="rgb(73,104,159)" fill-opacity=".48" rx="1.5" ry="1.5"/>
    <ellipse cx="127.5" cy="28.5" fill="rgb(73,104,159)" fill-opacity=".48" rx="1.5" ry="1.5"/>
    <ellipse cx="1.5" cy="42.5" fill="rgb(73,104,159)" fill-opacity=".48" rx="1.5" ry="1.5"/>
    <ellipse cx="14.5" cy="42.5" fill="rgb(73,104,159)" fill-opacity=".48" rx="1.5" ry="1.5"/>
    <ellipse cx="29.5" cy="42.5" fill="rgb(73,104,159)" fill-opacity=".48" rx="1.5" ry="1.5"/>
    <ellipse cx="43.5" cy="42.5" fill="rgb(73,104,159)" fill-opacity=".48" rx="1.5" ry="1.5"/>
    <ellipse cx="57.5" cy="42.5" fill="rgb(73,104,159)" fill-opacity=".48" rx="1.5" ry="1.5"/>
    <ellipse cx="71.5" cy="42.5" fill="rgb(73,104,159)" fill-opacity=".48" rx="1.5" ry="1.5"/>
    <ellipse cx="85.5" cy="42.5" fill="rgb(73,104,159)" fill-opacity=".48" rx="1.5" ry="1.5"/>
    <ellipse cx="99.5" cy="42.5" fill="rgb(73,104,159)" fill-opacity=".48" rx="1.5" ry="1.5"/>
    <ellipse cx="113.5" cy="42.5" fill="rgb(73,104,159)" fill-opacity=".48" rx="1.5" ry="1.5"/>
    <ellipse cx="127.5" cy="42.5" fill="rgb(73,104,159)" fill-opacity=".48" rx="1.5" ry="1.5"/>
    <ellipse cx="1.5" cy="57.5" fill="rgb(73,104,159)" fill-opacity=".48" rx="1.5" ry="1.5"/>
    <ellipse cx="14.5" cy="57.5" fill="rgb(73,104,159)" fill-opacity=".48" rx="1.5" ry="1.5"/>
    <ellipse cx="29.5" cy="57.5" fill="rgb(73,104,159)" fill-opacity=".48" rx="1.5" ry="1.5"/>
    <ellipse cx="43.5" cy="57.5" fill="rgb(73,104,159)" fill-opacity=".48" rx="1.5" ry="1.5"/>
    <ellipse cx="57.5" cy="57.5" fill="rgb(73,104,159)" fill-opacity=".48" rx="1.5" ry="1.5"/>
    <ellipse cx="71.5" cy="57.5" fill="rgb(73,104,159)" fill-opacity=".48" rx="1.5" ry="1.5"/>
    <ellipse cx="85.5" cy="57.5" fill="rgb(73,104,159)" fill-opacity=".48" rx="1.5" ry="1.5"/>
    <ellipse cx="99.5" cy="57.5" fill="rgb(73,104,159)" fill-opacity=".48" rx="1.5" ry="1.5"/>
    <ellipse cx="113.5" cy="57.5" fill="rgb(73,104,159)" fill-opacity=".48" rx="1.5" ry="1.5"/>
    <ellipse cx="127.5" cy="57.5" fill="rgb(73,104,159)" fill-opacity=".48" rx="1.5" ry="1.5"/>
    <ellipse cx="1.5" cy="71.5" fill="rgb(73,104,159)" fill-opacity=".48" rx="1.5" ry="1.5"/>
    <ellipse cx="14.5" cy="71.5" fill="rgb(73,104,159)" fill-opacity=".48" rx="1.5" ry="1.5"/>
    <ellipse cx="29.5" cy="71.5" fill="rgb(73,104,159)" fill-opacity=".48" rx="1.5" ry="1.5"/>
    <ellipse cx="43.5" cy="71.5" fill="rgb(73,104,159)" fill-opacity=".48" rx="1.5" ry="1.5"/>
    <ellipse cx="57.5" cy="71.5" fill="rgb(73,104,159)" fill-opacity=".48" rx="1.5" ry="1.5"/>
    <ellipse cx="71.5" cy="71.5" fill="rgb(73,104,159)" fill-opacity=".48" rx="1.5" ry="1.5"/>
    <ellipse cx="85.5" cy="71.5" fill="rgb(73,104,159)" fill-opacity=".48" rx="1.5" ry="1.5"/>
    <ellipse cx="99.5" cy="71.5" fill="rgb(73,104,159)" fill-opacity=".48" rx="1.5" ry="1.5"/>
    <ellipse cx="113.5" cy="71.5" fill="rgb(73,104,159)" fill-opacity=".48" rx="1.5" ry="1.5"/>
    <ellipse cx="127.5" cy="71.5" fill="rgb(73,104,159)" fill-opacity=".48" rx="1.5" ry="1.5"/>
    <ellipse cx="1.5" cy="85.5" fill="rgb(73,104,159)" fill-opacity=".48" rx="1.5" ry="1.5"/>
    <ellipse cx="14.5" cy="85.5" fill="rgb(73,104,159)" fill-opacity=".48" rx="1.5" ry="1.5"/>
    <ellipse cx="29.5" cy="85.5" fill="rgb(73,104,159)" fill-opacity=".48" rx="1.5" ry="1.5"/>
    <ellipse cx="43.5" cy="85.5" fill="rgb(73,104,159)" fill-opacity=".48" rx="1.5" ry="1.5"/>
    <ellipse cx="57.5" cy="85.5" fill="rgb(73,104,159)" fill-opacity=".48" rx="1.5" ry="1.5"/>
    <ellipse cx="71.5" cy="85.5" fill="rgb(73,104,159)" fill-opacity=".48" rx="1.5" ry="1.5"/>
    <ellipse cx="85.5" cy="85.5" fill="rgb(73,104,159)" fill-opacity=".48" rx="1.5" ry="1.5"/>
    <ellipse cx="99.5" cy="85.5" fill="rgb(73,104,159)" fill-opacity=".48" rx="1.5" ry="1.5"/>
    <ellipse cx="113.5" cy="85.5" fill="rgb(73,104,159)" fill-opacity=".48" rx="1.5" ry="1.5"/>
    <ellipse cx="127.5" cy="85.5" fill="rgb(73,104,159)" fill-opacity=".48" rx="1.5" ry="1.5"/>
    <ellipse cx="1.5" cy="98.5" fill="rgb(73,104,159)" fill-opacity=".48" rx="1.5" ry="1.5"/>
    <ellipse cx="14.5" cy="98.5" fill="rgb(73,104,159)" fill-opacity=".48" rx="1.5" ry="1.5"/>
    <ellipse cx="29.5" cy="98.5" fill="rgb(73,104,159)" fill-opacity=".48" rx="1.5" ry="1.5"/>
    <ellipse cx="43.5" cy="98.5" fill="rgb(73,104,159)" fill-opacity=".48" rx="1.5" ry="1.5"/>
    <ellipse cx="57.5" cy="98.5" fill="rgb(73,104,159)" fill-opacity=".48" rx="1.5" ry="1.5"/>
    <ellipse cx="71.5" cy="98.5" fill="rgb(73,104,159)" fill-opacity=".48" rx="1.5" ry="1.5"/>
    <ellipse cx="85.5" cy="98.5" fill="rgb(73,104,159)" fill-opacity=".48" rx="1.5" ry="1.5"/>
    <ellipse cx="99.5" cy="98.5" fill="rgb(73,104,159)" fill-opacity=".48" rx="1.5" ry="1.5"/>
    <ellipse cx="113.5" cy="98.5" fill="rgb(73,104,159)" fill-opacity=".48" rx="1.5" ry="1.5"/>
    <ellipse cx="127.5" cy="98.5" fill="rgb(73,104,159)" fill-opacity=".48" rx="1.5" ry="1.5"/>
    <ellipse cx="2.5" cy="113.5" fill="rgb(73,104,159)" fill-opacity=".48" rx="1.5" ry="1.5"/>
    <ellipse cx="15.5" cy="113.5" fill="rgb(73,104,159)" fill-opacity=".48" rx="1.5" ry="1.5"/>
    <ellipse cx="30.5" cy="113.5" fill="rgb(73,104,159)" fill-opacity=".48" rx="1.5" ry="1.5"/>
    <ellipse cx="44.5" cy="113.5" fill="rgb(73,104,159)" fill-opacity=".48" rx="1.5" ry="1.5"/>
    <ellipse cx="58.5" cy="113.5" fill="rgb(73,104,159)" fill-opacity=".48" rx="1.5" ry="1.5"/>
    <ellipse cx="72.5" cy="113.5" fill="rgb(73,104,159)" fill-opacity=".48" rx="1.5" ry="1.5"/>
    <ellipse cx="86.5" cy="113.5" fill="rgb(73,104,159)" fill-opacity=".48" rx="1.5" ry="1.5"/>
    <ellipse cx="100.5" cy="113.5" fill="rgb(73,104,159)" fill-opacity=".48" rx="1.5" ry="1.5"/>
    <ellipse cx="114.5" cy="113.5" fill="rgb(73,104,159)" fill-opacity=".48" rx="1.5" ry="1.5"/>
    <ellipse cx="128.5" cy="113.5" fill="rgb(73,104,159)" fill-opacity=".48" rx="1.5" ry="1.5"/>
    <ellipse cx="1.5" cy="127.5" fill="rgb(73,104,159)" fill-opacity=".48" rx="1.5" ry="1.5"/>
    <ellipse cx="14.5" cy="127.5" fill="rgb(73,104,159)" fill-opacity=".48" rx="1.5" ry="1.5"/>
    <ellipse cx="29.5" cy="127.5" fill="rgb(73,104,159)" fill-opacity=".48" rx="1.5" ry="1.5"/>
    <ellipse cx="43.5" cy="127.5" fill="rgb(73,104,159)" fill-opacity=".48" rx="1.5" ry="1.5"/>
    <ellipse cx="57.5" cy="127.5" fill="rgb(73,104,159)" fill-opacity=".48" rx="1.5" ry="1.5"/>
    <ellipse cx="71.5" cy="127.5" fill="rgb(73,104,159)" fill-opacity=".48" rx="1.5" ry="1.5"/>
    <ellipse cx="85.5" cy="127.5" fill="rgb(73,104,159)" fill-opacity=".48" rx="1.5" ry="1.5"/>
    <ellipse cx="99.5" cy="127.5" fill="rgb(73,104,159)" fill-opacity=".48" rx="1.5" ry="1.5"/>
    <ellipse cx="113.5" cy="127.5" fill="rgb(73,104,159)" fill-opacity=".48" rx="1.5" ry="1.5"/>
    <ellipse cx="127.5" cy="127.5" fill="rgb(73,104,159)" fill-opacity=".48" rx="1.5" ry="1.5"/>
  </g>
</svg>
